<svg xmlns="http://www.w3.org/2000/svg" xmlns:xlink="http://www.w3.org/1999/xlink" width="2048" height="800" viewBox="0 0 2048 800" fill="none">
<g  clip-path="url(#clip-path-0)">
<g filter="url(#filter_0)">
<path d="M400 0C179.086 0 0 179.086 0 400C0 620.914 179.086 800 400 800C620.914 800 400 620.914 400 400C400 179.086 620.914 0 400 0Z"   fill="#7A91FF" >
</path>
</g>
<g filter="url(#filter_1)">
<circle cx="400" cy="400" r="300"   fill="#87D5FF" >
</circle>
</g>
<g >
<path     fill="#000000"  d="M935 315.7Q933.5 287.8 933.5 265.6Q933.5 243.1 935 215.5Q936.5 196.3 947 180.55Q957.5 164.8 974.15 155.95Q990.8 147.1 1010.3 147.1Q1029.8 147.1 1046.45 155.95Q1063.1 164.8 1073.6 180.4Q1084.1 196 1085.3 215.2Q1087.1 240.4 1087.1 265.6Q1087.1 290.8 1085.3 316Q1084.1 335.2 1073.6 350.8Q1063.1 366.4 1046.45 375.25Q1029.8 384.1 1010.3 384.1Q990.8 384.1 974 375.25Q957.2 366.4 946.85 350.65Q936.5 334.9 935 315.7ZM1062.5 314.2Q1064 293.8 1064 265.6Q1064 236.8 1062.5 217Q1061.6 203.5 1054.25 192.1Q1046.9 180.7 1035.35 173.95Q1023.8 167.2 1010.3 167.2Q996.8 167.2 985.25 173.95Q973.7 180.7 966.35 192.25Q959 203.8 958.1 217Q956.6 244 956.6 265.6Q956.6 287.2 958.1 314.2Q959 327.4 966.35 338.95Q973.7 350.5 985.25 357.25Q996.8 364 1010.3 364Q1023.5 364 1035.2 357.25Q1046.9 350.5 1054.25 338.95Q1061.6 327.4 1062.5 314.2ZM1121.6 454L1121.6 232.6Q1121.6 227.8 1124.9 224.5Q1128.2 221.2 1133 221.2Q1137.8 221.2 1141.1 224.5Q1144.4 227.8 1144.4 232.6L1144.4 235.3Q1144.7 234.1 1149.65 229.75Q1154.6 225.4 1162.85 221.65Q1171.1 217.9 1181.3 217.9Q1205.3 217.9 1220.6 232.6Q1235.9 247.3 1237.1 272.5Q1238 289 1238 300.7Q1238 312.1 1237.1 329.2Q1235.9 354.4 1220.6 368.95Q1205.3 383.5 1181.6 383.5Q1168.1 383.5 1158.2 378.85Q1148.3 374.2 1144.4 369.1L1144.4 454.6Q1144.4 459.4 1140.65 462.7Q1136.9 466 1131.8 466Q1127.6 466 1124.6 462.4Q1121.6 458.8 1121.6 454ZM1214 329.2Q1214.6 320.8 1214.6 300.7Q1214.6 280.9 1214 272.5Q1213.4 258.4 1204.1 248.35Q1194.8 238.3 1178.6 238.3Q1165.1 238.3 1156.4 245.5Q1147.7 252.7 1144.4 263.5Q1143.2 269.5 1143.2 272.5Q1142.6 289.3 1142.6 300.7Q1142.6 312.4 1143.2 329.2Q1143.2 332.5 1144.4 337.9Q1147.4 349 1156.25 356.2Q1165.1 363.4 1178.6 363.4Q1194.8 363.4 1204.1 353.35Q1213.4 343.3 1214 329.2ZM1262.9 329.2Q1262 312.1 1262 300.7Q1262 289 1262.9 272.5Q1264.1 247 1279.85 232.45Q1295.6 217.9 1321.4 217.9Q1347.2 217.9 1362.95 232.45Q1378.7 247 1379.9 272.5Q1380.5 285.1 1380.5 289.6L1380.8 298Q1380.8 302.8 1377.5 306.1Q1374.2 309.4 1369.4 309.4L1285.4 309.4Q1285.4 317.2 1286 329.2Q1286.6 343.3 1295.9 353.35Q1305.2 363.4 1321.4 363.4Q1335.8 363.4 1344.95 358.9Q1354.1 354.4 1361.6 343.6Q1364.9 339.4 1370 339.4Q1373.3 339.4 1376 341.2Q1380.5 343.9 1380.5 349.6Q1380.5 352.9 1379 354.7Q1368.2 371.2 1356.2 377.35Q1344.2 383.5 1321.4 383.5Q1295.6 383.5 1279.85 369.1Q1264.1 354.7 1262.9 329.2ZM1357.4 289.3Q1357.4 282.7 1356.8 272.5Q1356.2 258.4 1346.9 248.35Q1337.6 238.3 1321.4 238.3Q1305.2 238.3 1295.9 248.35Q1286.6 258.4 1286 272.5Q1285.4 282.7 1285.4 289.3L1357.4 289.3ZM1410.8 367.9L1410.8 231.4Q1410.8 226.6 1414.1 223.3Q1417.4 220 1422.2 220Q1427 220 1430.3 223.3Q1433.6 226.6 1433.6 231.4L1433.6 234.1Q1438.7 227.8 1448.15 222.4Q1457.6 217 1470.5 217Q1485.8 217 1498.25 224.65Q1510.7 232.3 1517.75 245.35Q1524.8 258.4 1524.8 274L1524.8 367.9Q1524.8 373 1521.05 376.45Q1517.3 379.9 1512.2 379.3Q1507.7 379 1504.7 375.55Q1501.7 372.1 1501.7 367.6L1501.7 274Q1501.7 257.2 1492.25 247.15Q1482.8 237.1 1467.8 237.1Q1452.8 237.1 1443.2 247.15Q1433.6 257.2 1433.6 274L1433.6 367.6Q1433.6 372.1 1430.75 375.55Q1427.9 379 1423.4 379.3Q1418.3 379.9 1414.55 376.45Q1410.8 373 1410.8 367.9ZM1561.4 306.4Q1559.3 286.6 1559.3 266.2Q1559.3 245.5 1561.4 224.5Q1563.2 201.7 1574 184Q1584.8 166.3 1602.35 156.7Q1619.9 147.1 1641.2 147.1Q1665.2 147.1 1685 159.4Q1704.8 171.7 1714.4 193.3Q1715.3 195.4 1715.3 197.8Q1715.3 201.1 1713.35 204.25Q1711.4 207.4 1708.4 208.6Q1706.3 209.5 1703.6 209.5Q1696.4 209.5 1693.1 202.6Q1686.2 187 1672.1 177.1Q1658 167.2 1641.2 167.2Q1618.1 167.2 1602.35 183.7Q1586.6 200.2 1584.2 226.3Q1582.1 251.5 1582.1 265.9Q1582.1 280.3 1584.2 304Q1586.9 330.7 1602.5 347.05Q1618.1 363.4 1641.2 363.4Q1658 363.4 1672.1 353.5Q1686.2 343.6 1693.1 328Q1696.4 321.1 1703.6 321.1Q1708.7 321.1 1712 324.55Q1715.3 328 1715.3 332.8Q1715.3 334.6 1714.4 337Q1704.8 358.6 1685 371.05Q1665.2 383.5 1641.2 383.5Q1619.6 383.5 1602.35 374.05Q1585.1 364.6 1574.3 347.05Q1563.5 329.5 1561.4 306.4ZM1737.8 329.2Q1737.8 324.4 1737.5 322.3L1737.2 300.7L1737.5 278.5Q1737.8 276.7 1737.8 272.5Q1739 247 1754.75 232.45Q1770.5 217.9 1796.3 217.9Q1822.1 217.9 1837.85 232.45Q1853.6 247 1854.8 272.5Q1855.7 289 1855.7 300.7Q1855.7 312.1 1854.8 329.2Q1853.6 354.7 1837.85 369.1Q1822.1 383.5 1796.3 383.5Q1770.5 383.5 1754.75 369.1Q1739 354.7 1737.8 329.2ZM1832 329.2Q1832.6 314.2 1832.6 303.7Q1832.6 291.1 1832 272.5Q1831.4 258.7 1821.95 248.5Q1812.5 238.3 1796.3 238.3Q1780.1 238.3 1770.8 248.35Q1761.5 258.4 1760.9 272.5Q1760.3 289.3 1760.3 300.7Q1760.3 312.4 1760.9 329.2Q1761.5 343.3 1770.8 353.35Q1780.1 363.4 1796.3 363.4Q1812.5 363.4 1821.95 353.2Q1831.4 343 1832 329.2ZM1950.5 367.9Q1950.5 372.7 1947.2 376Q1943.9 379.3 1939.1 379.3L1929.5 379.3Q1914.5 379.3 1904 368.8Q1893.5 358.3 1893.5 343.3L1893.5 239.8L1880.9 239.8Q1876.7 239.8 1873.7 236.8Q1870.7 233.8 1870.7 229.6Q1870.7 225.4 1873.7 222.55Q1876.7 219.7 1880.9 219.7L1893.5 219.7L1893.5 185.5Q1893.5 180.7 1896.8 177.4Q1900.1 174.1 1904.9 174.1Q1909.7 174.1 1913 177.4Q1916.3 180.7 1916.3 185.5L1916.3 219.7L1940.3 219.7Q1944.5 219.7 1947.5 222.55Q1950.5 225.4 1950.5 229.6Q1950.5 233.8 1947.5 236.8Q1944.5 239.8 1940.3 239.8L1916.3 239.8L1916.3 343.3Q1916.3 348.7 1920.2 352.45Q1924.1 356.2 1929.5 356.2L1939.1 356.2Q1943.9 356.2 1947.2 359.65Q1950.5 363.1 1950.5 367.9ZM938.6 657.6L938.6 452.7Q938.6 447.9 941.9 444.6Q945.2 441.3 950 441.3L1012.7 441.3Q1031.9 441.3 1047.65 451.2Q1063.4 461.1 1072.25 477.6Q1081.1 494.1 1081.1 512.4Q1081.1 531.6 1073.3 547.8Q1065.5 564 1050.05 573.9Q1034.6 583.8 1012.7 583.8L961.7 583.8L961.7 657.6Q961.7 662.4 958.25 665.85Q954.8 669.3 950 669.3Q945.2 669.3 941.9 665.85Q938.6 662.4 938.6 657.6ZM1007 563.4Q1030.1 563.4 1044.05 551.1Q1058 538.8 1058 512.4Q1058 495 1050.5 483.45Q1043 471.9 1031.45 466.65Q1019.9 461.4 1007 461.4L961.7 461.4L961.7 563.4L1007 563.4ZM1114.1 657.6L1114.1 520.8Q1114.1 516 1117.4 512.7Q1120.7 509.4 1125.5 509.4Q1130.3 509.4 1133.75 512.7Q1137.2 516 1137.2 520.8L1137.2 552.3Q1146.2 536.7 1162.25 524.85Q1178.3 513 1191.2 509.7Q1192.1 509.4 1193.9 509.4Q1197.8 509.4 1200.95 511.8Q1204.1 514.2 1205 518.1Q1205.3 519.3 1205.3 521.1Q1205.3 525 1203.05 528Q1200.8 531 1196.9 532.2Q1186.7 534.6 1172.45 545.25Q1158.2 555.9 1147.7 572.1Q1137.2 588.3 1137.2 606.3L1137.2 657.6Q1137.2 662.4 1133.75 665.7Q1130.3 669 1125.5 669Q1120.7 669 1117.4 665.7Q1114.1 662.4 1114.1 657.6ZM1217.9 619.2Q1217.9 614.4 1217.6 612.3L1217.3 590.7L1217.6 568.5Q1217.9 566.7 1217.9 562.5Q1219.1 537 1234.85 522.45Q1250.6 507.9 1276.4 507.9Q1302.2 507.9 1317.95 522.45Q1333.7 537 1334.9 562.5Q1335.8 579 1335.8 590.7Q1335.8 602.1 1334.9 619.2Q1333.7 644.7 1317.95 659.1Q1302.2 673.5 1276.4 673.5Q1250.6 673.5 1234.85 659.1Q1219.1 644.7 1217.9 619.2ZM1312.1 619.2Q1312.7 604.2 1312.7 593.7Q1312.7 581.1 1312.1 562.5Q1311.5 548.7 1302.05 538.5Q1292.6 528.3 1276.4 528.3Q1260.2 528.3 1250.9 538.35Q1241.6 548.4 1241 562.5Q1240.4 579.3 1240.4 590.7Q1240.4 602.4 1241 619.2Q1241.6 633.3 1250.9 643.35Q1260.2 653.4 1276.4 653.4Q1292.6 653.4 1302.05 643.2Q1311.5 633 1312.1 619.2ZM1364.9 465Q1364.9 459 1369.1 454.8Q1373.3 450.6 1379.3 450.6Q1385.3 450.6 1389.65 454.8Q1394 459 1394 465Q1394 471 1389.65 475.35Q1385.3 479.7 1379.3 479.7Q1373.3 479.7 1369.1 475.35Q1364.9 471 1364.9 465ZM1322.3 744Q1322.3 739.2 1325.6 735.9Q1328.9 732.6 1333.7 732.6Q1347.8 732.6 1357.85 722.7Q1367.9 712.8 1367.9 698.7L1367.9 516.3Q1367.9 511.5 1371.2 508.2Q1374.5 504.9 1379.3 504.9Q1384.1 504.9 1387.55 508.2Q1391 511.5 1391 516.3L1391 698.7Q1391 714 1383.2 727.2Q1375.4 740.4 1362.35 748.05Q1349.3 755.7 1333.7 755.7Q1328.9 755.7 1325.6 752.25Q1322.3 748.8 1322.3 744ZM1424.9 619.2Q1424 602.1 1424 590.7Q1424 579 1424.9 562.5Q1426.1 537 1441.85 522.45Q1457.6 507.9 1483.4 507.9Q1509.2 507.9 1524.95 522.45Q1540.7 537 1541.9 562.5Q1542.5 575.1 1542.5 579.6L1542.8 588Q1542.8 592.8 1539.5 596.1Q1536.2 599.4 1531.4 599.4L1447.4 599.4Q1447.4 607.2 1448 619.2Q1448.6 633.3 1457.9 643.35Q1467.2 653.4 1483.4 653.4Q1497.8 653.4 1506.95 648.9Q1516.1 644.4 1523.6 633.6Q1526.9 629.4 1532 629.4Q1535.3 629.4 1538 631.2Q1542.5 633.9 1542.5 639.6Q1542.5 642.9 1541 644.7Q1530.2 661.2 1518.2 667.35Q1506.2 673.5 1483.4 673.5Q1457.6 673.5 1441.85 659.1Q1426.1 644.7 1424.9 619.2ZM1519.4 579.3Q1519.4 572.7 1518.8 562.5Q1518.2 548.4 1508.9 538.35Q1499.6 528.3 1483.4 528.3Q1467.2 528.3 1457.9 538.35Q1448.6 548.4 1448 562.5Q1447.4 572.7 1447.4 579.3L1519.4 579.3ZM1567.1 613.5L1566.8 590.7L1567.1 567.9Q1567.7 550.8 1575.65 537.3Q1583.6 523.8 1597.4 516Q1611.2 508.2 1628.9 508.2Q1651.4 508.2 1666.25 519.45Q1681.1 530.7 1687.1 550.2Q1687.7 552.6 1687.7 553.8Q1687.7 558.3 1684.4 561.75Q1681.1 565.2 1676.3 565.2Q1672.4 565.2 1669.4 562.95Q1666.4 560.7 1665.2 557.1Q1661 543.6 1652.75 535.95Q1644.5 528.3 1628.9 528.3Q1616.6 528.3 1608.05 534.3Q1599.5 540.3 1595.15 549.45Q1590.8 558.6 1590.2 567.9Q1589.6 584.7 1589.6 590.7Q1589.6 596.1 1590.2 613.5Q1590.8 622.8 1595.15 631.95Q1599.5 641.1 1608.05 647.25Q1616.6 653.4 1628.9 653.4Q1644.5 653.4 1652.75 645.6Q1661 637.8 1665.2 624.3Q1666.4 620.7 1669.4 618.45Q1672.4 616.2 1676.3 616.2Q1681.1 616.2 1684.55 619.95Q1688 623.7 1688 628.2Q1688 629.4 1687.4 631.2Q1681.4 650.7 1666.4 662.1Q1651.4 673.5 1628.9 673.5Q1611.2 673.5 1597.55 665.7Q1583.9 657.9 1575.95 644.25Q1568 630.6 1567.1 613.5ZM1782.8 657.9Q1782.8 662.7 1779.5 666Q1776.2 669.3 1771.4 669.3L1761.8 669.3Q1746.8 669.3 1736.3 658.8Q1725.8 648.3 1725.8 633.3L1725.8 529.8L1713.2 529.8Q1709 529.8 1706 526.8Q1703 523.8 1703 519.6Q1703 515.4 1706 512.55Q1709 509.7 1713.2 509.7L1725.8 509.7L1725.8 475.5Q1725.8 470.7 1729.1 467.4Q1732.4 464.1 1737.2 464.1Q1742 464.1 1745.3 467.4Q1748.6 470.7 1748.6 475.5L1748.6 509.7L1772.6 509.7Q1776.8 509.7 1779.8 512.55Q1782.8 515.4 1782.8 519.6Q1782.8 523.8 1779.8 526.8Q1776.8 529.8 1772.6 529.8L1748.6 529.8L1748.6 633.3Q1748.6 638.7 1752.5 642.45Q1756.4 646.2 1761.8 646.2L1771.4 646.2Q1776.2 646.2 1779.5 649.65Q1782.8 653.1 1782.8 657.9ZM1800.8 622.5Q1800.5 617.7 1803.65 614.25Q1806.8 610.8 1811.6 610.5Q1816.4 610.2 1819.85 613.2Q1823.3 616.2 1823.9 621Q1824.8 638.4 1836.2 645Q1847.6 651.6 1857.8 651.6Q1872.5 651.6 1882.1 643.05Q1891.7 634.5 1891.7 621.9Q1891.7 609.6 1883.75 604.2Q1875.8 598.8 1855.1 594.9Q1840.4 592.2 1829.75 588.3Q1819.1 584.4 1811.3 576Q1803.5 567.6 1803.5 553.5Q1803.5 533.7 1818.8 521.55Q1834.1 509.4 1857.8 509.4Q1879.1 509.4 1893.5 518.85Q1907.9 528.3 1911.5 545.4Q1911.8 546.3 1911.8 548.1Q1911.8 552 1909.25 555.15Q1906.7 558.3 1902.8 559.2Q1898 560.1 1894.1 557.55Q1890.2 555 1889 550.2Q1886.6 538.5 1876.4 534Q1866.2 529.5 1857.8 529.5Q1845.2 529.5 1835.9 535.95Q1826.6 542.4 1826.6 553.5Q1826.6 559.8 1829.45 563.55Q1832.3 567.3 1839.2 570Q1846.1 572.7 1859.3 575.1Q1883.3 579.3 1899.05 589.05Q1914.8 598.8 1914.8 621.9Q1914.8 636.3 1907.3 647.55Q1899.8 658.8 1886.75 665.25Q1873.7 671.7 1857.8 671.7Q1833.5 671.7 1817.75 658.35Q1802 645 1800.8 622.5Z">
</path>
</g>
</g>
<defs>
<clipPath id="clip-path-0">
<path d="M0 800L2048 800L2048 0L0 0L0 800Z" fill="white"/>
</clipPath>
<filter id="filter_0" x="0" y="0" width="620.9138793945312" height="800" filterUnits="userSpaceOnUse" color-interpolation-filters="sRGB">
<feFlood flood-opacity="0" result="feFloodId_0"/>
<feBlend mode="normal" in="SourceGraphic" in2="feFloodId_0" result="shape_0"/>
<feColorMatrix in="SourceAlpha" type="matrix" values="0 0 0 0 0 0 0 0 0 0 0 0 0 0 0 0 0 0 127 0" result="hardAlpha_0"/>
<feOffset dx="17" dy="8"/>
<feGaussianBlur stdDeviation="23.5"/>
<feComposite in2="hardAlpha_0" operator="arithmetic" k2="-1" k3="1"/>
<feColorMatrix type="matrix" values="0 0 0 0 0 0 0 0 0 0 0 0 0 0 0 0 0 0 0.25 0"/>
<feBlend mode="" in2="shape_0" result="innerShadow_0_0" />
</filter>
<filter id="filter_1" x="-8" y="31" width="756" height="756" filterUnits="userSpaceOnUse" color-interpolation-filters="sRGB">
<feFlood flood-opacity="0" result="feFloodId_1"/>
<feColorMatrix in="SourceAlpha" type="matrix" values="0 0 0 0 0 0 0 0 0 0 0 0 0 0 0 0 0 0 127 0" result="hardAlpha_1"/>
<feOffset dx="-30" dy="9"/>
<feGaussianBlur stdDeviation="39"/>
<feComposite in2="hardAlpha_1" operator="out"/>
<feColorMatrix type="matrix" values="0 0 0 0 0 0 0 0 0 0 0 0 0 0 0 0 0 0 0.25 0"/>
<feBlend mode="" in2="feFloodId_1" result="dropShadow_1_1"/>
<feBlend mode="normal" in="SourceGraphic" in2="dropShadow_1_1" result="shape_1"/>
</filter>
</defs>
</svg>
